<svg width="862" height="163" viewBox="0 0 862 163" fill="none"
    xmlns="http://www.w3.org/2000/svg">
    <path fill-rule="evenodd" clip-rule="evenodd" d="M56.5714 15.5C49.6285 15.5 44.0001 21.1284 44.0001 28.0714V35.5017C44.0001 36.6062 43.1046 37.5017 42.0001 37.5017H24.0002C22.8956 37.5017 22.0002 38.3971 22.0002 39.5017V60.6414C22.0002 61.746 21.1048 62.6414 20.0002 62.6414H12.5714C5.6284 62.6414 3.0348e-07 68.2698 0 75.2128C-3.03495e-07 82.1558 5.62841 87.7842 12.5714 87.7842H20.0002C21.1048 87.7842 22.0002 88.6796 22.0002 89.7842V123.501C22.0002 124.606 22.8956 125.501 24.0002 125.501H43.9985C43.9993 125.501 43.9999 125.501 43.9999 125.5V125.5V112.929C43.9999 105.986 49.6283 100.357 56.5713 100.357C63.5142 100.357 69.1427 105.986 69.1427 112.929V125.5V125.5C69.1427 125.501 69.1433 125.501 69.144 125.501H85.999C87.1036 125.501 87.999 126.397 87.999 127.501V134.929C87.999 141.872 93.6274 147.5 100.57 147.5C107.513 147.5 113.142 141.872 113.142 134.929V127.501C113.142 126.397 114.037 125.501 115.142 125.501H131.996C131.997 125.501 131.998 125.5 131.998 125.499V125.499V112.928C131.998 105.985 137.627 100.356 144.57 100.356C151.513 100.356 157.141 105.985 157.141 112.928V125.499V125.499C157.141 125.5 157.142 125.501 157.144 125.501H177.143C178.247 125.501 179.143 124.606 179.143 123.501V89.7842C179.143 88.6796 180.038 87.7842 181.143 87.7842H188.568C195.511 87.7842 201.14 82.1558 201.14 75.2128C201.14 68.2698 195.511 62.6414 188.568 62.6414H181.143C180.038 62.6414 179.143 61.746 179.143 60.6414V39.5017C179.143 38.3971 178.247 37.5017 177.143 37.5017H159.141C158.036 37.5017 157.141 36.6062 157.141 35.5017V28.0714C157.141 21.1284 151.513 15.5 144.57 15.5C137.627 15.5 131.998 21.1284 131.998 28.0714V35.5017C131.998 36.6062 131.103 37.5017 129.998 37.5017H115.142C114.038 37.5017 113.142 38.3971 113.142 39.5017V50.0723C113.142 57.0153 107.514 62.6437 100.571 62.6437C93.6278 62.6437 87.9994 57.0153 87.9994 50.0723V39.5017C87.9994 38.3971 87.104 37.5017 85.9994 37.5017H71.1428C70.0383 37.5017 69.1428 36.6062 69.1428 35.5017V28.0714C69.1428 21.1284 63.5144 15.5 56.5714 15.5Z" fill="black" style="fill:black;fill-opacity:1;"/>
    <path d="M233.588 126V36.4H264.948L280.436 114.48H282.74L298.228 36.4H329.588V126H313.204V48.816H310.9L295.54 126H267.636L252.276 48.816H249.972V126H233.588ZM374.623 127.792C368.308 127.792 362.719 126.469 357.855 123.824C353.076 121.093 349.321 117.296 346.591 112.432C343.945 107.483 342.623 101.68 342.623 95.024V93.488C342.623 86.832 343.945 81.072 346.591 76.208C349.236 71.2587 352.948 67.4613 357.727 64.816C362.505 62.0853 368.052 60.72 374.367 60.72C380.596 60.72 386.015 62.128 390.623 64.944C395.231 67.6747 398.815 71.5147 401.375 76.464C403.935 81.328 405.215 87.0027 405.215 93.488V98.992H359.007C359.177 103.344 360.799 106.885 363.871 109.616C366.943 112.347 370.697 113.712 375.135 113.712C379.657 113.712 382.985 112.731 385.119 110.768C387.252 108.805 388.873 106.629 389.983 104.24L403.167 111.152C401.972 113.371 400.223 115.803 397.919 118.448C395.7 121.008 392.713 123.227 388.959 125.104C385.204 126.896 380.425 127.792 374.623 127.792ZM359.135 86.96H388.831C388.489 83.2907 386.996 80.3467 384.351 78.128C381.791 75.9093 378.42 74.8 374.239 74.8C369.887 74.8 366.431 75.9093 363.871 78.128C361.311 80.3467 359.732 83.2907 359.135 86.96ZM415.218 94.512V92.464C415.218 85.808 416.54 80.1333 419.186 75.44C421.831 70.6613 425.33 67.0347 429.682 64.56C434.119 62 438.94 60.72 444.146 60.72C449.948 60.72 454.343 61.744 457.33 63.792C460.316 65.84 462.492 67.9733 463.858 70.192H466.162V62.512H482.034V137.264C482.034 141.616 480.754 145.072 478.194 147.632C475.634 150.277 472.22 151.6 467.954 151.6H425.458V137.52H462.322C464.711 137.52 465.906 136.24 465.906 133.68V117.168H463.602C462.748 118.533 461.554 119.941 460.018 121.392C458.482 122.757 456.434 123.909 453.874 124.848C451.314 125.787 448.071 126.256 444.146 126.256C438.94 126.256 434.119 125.019 429.682 122.544C425.33 119.984 421.831 116.357 419.186 111.664C416.54 106.885 415.218 101.168 415.218 94.512ZM448.754 112.176C453.703 112.176 457.842 110.597 461.17 107.44C464.498 104.283 466.162 99.8453 466.162 94.128V92.848C466.162 87.0453 464.498 82.608 461.17 79.536C457.927 76.3787 453.788 74.8 448.754 74.8C443.804 74.8 439.666 76.3787 436.338 79.536C433.01 82.608 431.346 87.0453 431.346 92.848V94.128C431.346 99.8453 433.01 104.283 436.338 107.44C439.666 110.597 443.804 112.176 448.754 112.176ZM518.347 127.792C513.824 127.792 509.771 127.024 506.187 125.488C502.603 123.867 499.744 121.563 497.611 118.576C495.563 115.504 494.539 111.792 494.539 107.44C494.539 103.088 495.563 99.4613 497.611 96.56C499.744 93.5733 502.645 91.3547 506.315 89.904C510.069 88.368 514.336 87.6 519.115 87.6H536.523V84.016C536.523 81.0293 535.584 78.5973 533.707 76.72C531.829 74.7573 528.843 73.776 524.747 73.776C520.736 73.776 517.749 74.7147 515.787 76.592C513.824 78.384 512.544 80.7307 511.947 83.632L497.099 78.64C498.123 75.3973 499.744 72.4533 501.963 69.808C504.267 67.0773 507.296 64.9013 511.051 63.28C514.891 61.5733 519.541 60.72 525.003 60.72C533.365 60.72 539.979 62.8107 544.843 66.992C549.707 71.1733 552.139 77.232 552.139 85.168V108.848C552.139 111.408 553.333 112.688 555.723 112.688H560.843V126H550.091C546.933 126 544.331 125.232 542.283 123.696C540.235 122.16 539.211 120.112 539.211 117.552V117.424H536.779C536.437 118.448 535.669 119.813 534.475 121.52C533.28 123.141 531.403 124.592 528.843 125.872C526.283 127.152 522.784 127.792 518.347 127.792ZM521.163 114.736C525.685 114.736 529.355 113.499 532.171 111.024C535.072 108.464 536.523 105.093 536.523 100.912V99.632H520.267C517.28 99.632 514.933 100.272 513.227 101.552C511.52 102.832 510.667 104.624 510.667 106.928C510.667 109.232 511.563 111.109 513.355 112.56C515.147 114.011 517.749 114.736 521.163 114.736ZM571.355 126V36.4H587.483V126H571.355ZM634.283 127.792C627.968 127.792 622.293 126.512 617.259 123.952C612.224 121.392 608.256 117.68 605.355 112.816C602.453 107.952 601.003 102.107 601.003 95.28V93.232C601.003 86.4053 602.453 80.56 605.355 75.696C608.256 70.832 612.224 67.12 617.259 64.56C622.293 62 627.968 60.72 634.283 60.72C640.597 60.72 646.272 62 651.307 64.56C656.341 67.12 660.309 70.832 663.211 75.696C666.112 80.56 667.563 86.4053 667.563 93.232V95.28C667.563 102.107 666.112 107.952 663.211 112.816C660.309 117.68 656.341 121.392 651.307 123.952C646.272 126.512 640.597 127.792 634.283 127.792ZM634.283 113.456C639.232 113.456 643.328 111.877 646.571 108.72C649.813 105.477 651.435 100.869 651.435 94.896V93.616C651.435 87.6427 649.813 83.0773 646.571 79.92C643.413 76.6773 639.317 75.056 634.283 75.056C629.333 75.056 625.237 76.6773 621.995 79.92C618.752 83.0773 617.131 87.6427 617.131 93.616V94.896C617.131 100.869 618.752 105.477 621.995 108.72C625.237 111.877 629.333 113.456 634.283 113.456ZM678.098 94.512V92.464C678.098 85.808 679.42 80.1333 682.066 75.44C684.711 70.6613 688.21 67.0347 692.562 64.56C696.999 62 701.82 60.72 707.026 60.72C712.828 60.72 717.223 61.744 720.21 63.792C723.196 65.84 725.372 67.9733 726.738 70.192H729.042V62.512H744.914V137.264C744.914 141.616 743.634 145.072 741.074 147.632C738.514 150.277 735.1 151.6 730.834 151.6H688.338V137.52H725.202C727.591 137.52 728.786 136.24 728.786 133.68V117.168H726.482C725.628 118.533 724.434 119.941 722.898 121.392C721.362 122.757 719.314 123.909 716.754 124.848C714.194 125.787 710.951 126.256 707.026 126.256C701.82 126.256 696.999 125.019 692.562 122.544C688.21 119.984 684.711 116.357 682.066 111.664C679.42 106.885 678.098 101.168 678.098 94.512ZM711.634 112.176C716.583 112.176 720.722 110.597 724.05 107.44C727.378 104.283 729.042 99.8453 729.042 94.128V92.848C729.042 87.0453 727.378 82.608 724.05 79.536C720.807 76.3787 716.668 74.8 711.634 74.8C706.684 74.8 702.546 76.3787 699.218 79.536C695.89 82.608 694.226 87.0453 694.226 92.848V94.128C694.226 99.8453 695.89 104.283 699.218 107.44C702.546 110.597 706.684 112.176 711.634 112.176ZM761.515 126V62.512H777.643V126H761.515ZM769.579 55.088C766.677 55.088 764.203 54.1493 762.155 52.272C760.192 50.3947 759.211 47.92 759.211 44.848C759.211 41.776 760.192 39.3013 762.155 37.424C764.203 35.5467 766.677 34.608 769.579 34.608C772.565 34.608 775.04 35.5467 777.003 37.424C778.965 39.3013 779.947 41.776 779.947 44.848C779.947 47.92 778.965 50.3947 777.003 52.272C775.04 54.1493 772.565 55.088 769.579 55.088ZM824.059 127.792C817.915 127.792 812.325 126.512 807.291 123.952C802.341 121.392 798.416 117.68 795.515 112.816C792.613 107.952 791.163 102.064 791.163 95.152V93.36C791.163 86.448 792.613 80.56 795.515 75.696C798.416 70.832 802.341 67.12 807.291 64.56C812.325 62 817.915 60.72 824.059 60.72C830.117 60.72 835.323 61.7867 839.675 63.92C844.027 66.0533 847.525 68.9973 850.171 72.752C852.901 76.4213 854.693 80.6027 855.547 85.296L839.931 88.624C839.589 86.064 838.821 83.76 837.627 81.712C836.432 79.664 834.725 78.0427 832.507 76.848C830.373 75.6533 827.685 75.056 824.443 75.056C821.2 75.056 818.256 75.7813 815.611 77.232C813.051 78.5973 811.003 80.688 809.467 83.504C808.016 86.2347 807.291 89.6053 807.291 93.616V94.896C807.291 98.9067 808.016 102.32 809.467 105.136C811.003 107.867 813.051 109.957 815.611 111.408C818.256 112.773 821.2 113.456 824.443 113.456C829.307 113.456 832.976 112.219 835.451 109.744C838.011 107.184 839.632 103.856 840.315 99.76L855.931 103.472C854.821 107.995 852.901 112.133 850.171 115.888C847.525 119.557 844.027 122.459 839.675 124.592C835.323 126.725 830.117 127.792 824.059 127.792Z" fill="black" style="fill:black;fill-opacity:1;"/>
</svg>
