<svg xmlns="http://www.w3.org/2000/svg" xmlns:xlink="http://www.w3.org/1999/xlink" preserveAspectRatio="xMidYMid meet" version="1.1" viewBox="586 216 123 126"><g id="logo__item--logo_0" class="logo__item" data-item="Image" data-item-type="image"><g class="logo__item__inner"><g transform="translate(580.0385554169433 212.5) scale(0.8895477528239221 0.8895477528239221) rotate(0 0 0)"><polygon fill="#080d0b" points="127.8 73.8 122.8 70.9 122.8 80.5 122.8 86.6 122.8 106.4 69.4 137.2 52.3 127.3 47.2 130.2 69.4 143.1 127.8 109.4 127.8 107.9 127.8 83.7 127.8 77.5" data-part-id="logo__item--logo_0__0"/><polygon fill="#080d0b" points="36.4 27.3 36.4 33.2 46.9 27.1 52.2 24 69.4 14.1 122.8 44.9 122.8 64.8 127.8 67.7 127.8 41.9 69.4 8.2 47.2 21.1 41.8 24.2" data-part-id="logo__item--logo_0__1"/><polygon fill="#080d0b" points="41.8 127.1 41.9 127.2 42 127.1 47 124.2 36.4 118.1 31.1 115.1 16.1 106.4 16.1 44.9 31.1 36.2 31.1 30.4 11.1 41.9 11.1 109.4 31.1 120.9 36.4 124" data-part-id="logo__item--logo_0__2"/><path fill="#2fffb3" d="M31.1,75.7v30.7v0.2v8.5l5.3,3.1v-11.3v-0.2v-31V33.2v-5.8v-2V21l2.5,1.5c0,0,0,0,0,0l2.9,1.7l5.3-3.1 l-3.5-2c0,0,0,0,0,0l-12.6-7.3v18.6v5.9V75.7z" data-part-id="logo__item--logo_0__3"/><polygon fill="#2fffb3" points="86.4 107.6 116.7 90.1 116.7 90.1 122.8 86.6 122.8 80.5 115.6 84.6 115.6 84.6 83.7 103 47 124.2 42 127.1 41.9 127.2 36.4 130.4 36.4 128.5 36.4 127.1 36.4 124 31.1 120.9 31.1 127.1 31.1 128.5 31.1 139.5 47.2 130.2 52.3 127.3" data-part-id="logo__item--logo_0__4"/><path fill="#2fffb3" d="M130.9,81.9l10.8-6.2l-4-2.3l-9.9-5.7l-5.1-2.9l-36.4-21L63.7,30.6l0,0L52.2,24l-5.3,3.1l9.6,5.6l0,0 l27.2,15.7l39,22.6l5.1,2.9l2.3,1.4l0.9,0.5l-0.8,0.4v0l-2.5,1.4v6.1L130.9,81.9C130.9,81.9,130.9,81.9,130.9,81.9z" data-part-id="logo__item--logo_0__5"/><polygon fill="#080d0b" points="81.2 97.4 119.5 75.3 81.2 53.2 42.9 31.1 42.9 75.3 42.9 106.7 42.9 119.5" data-part-id="logo__item--logo_0__6"/></g></g></g></svg>