<svg width="1080" height="1080" viewBox="0 0 1080 1080" fill="none" xmlns="http://www.w3.org/2000/svg">
<path fill-rule="evenodd" clip-rule="evenodd" d="M319.857 210C285.143 210 257 238.142 257 272.857V310.008C257 315.531 252.523 320.008 247 320.008H157.001C151.478 320.008 147.001 324.486 147.001 330.008V435.707C147.001 441.23 142.524 445.707 137.001 445.707H99.8572C65.1423 445.707 37.0002 473.849 37.0002 508.564C37.0002 543.279 65.1423 571.421 99.8572 571.421H137.001C142.524 571.421 147.001 575.898 147.001 581.421V750.007C147.001 755.53 151.478 760.007 157.001 760.007H256.99C256.995 760.007 256.999 760.003 256.999 759.999V759.999V697.142C256.999 662.427 285.141 634.285 319.855 634.285C354.57 634.285 382.712 662.427 382.712 697.142V759.999V759.999C382.712 760.003 382.716 760.007 382.721 760.007H466.995C472.518 760.007 476.995 764.484 476.995 770.007V807.143C476.995 841.858 505.137 870 539.852 870C574.567 870 602.709 841.858 602.709 807.143V770.007C602.709 764.484 607.186 760.007 612.709 760.007H696.978C696.985 760.007 696.991 760.001 696.991 759.994V759.994V697.137C696.991 662.422 725.133 634.28 759.848 634.28C794.563 634.28 822.705 662.422 822.705 697.137V759.994V759.994C822.705 760.001 822.711 760.007 822.719 760.007H922.713C928.236 760.007 932.713 755.53 932.713 750.007V581.421C932.713 575.898 937.19 571.421 942.713 571.421H979.842C1014.56 571.421 1042.7 543.279 1042.7 508.564C1042.7 473.849 1014.56 445.707 979.842 445.707H942.713C937.19 445.707 932.713 441.23 932.713 435.707V330.008C932.713 324.486 928.236 320.008 922.713 320.008H832.705C827.182 320.008 822.705 315.531 822.705 310.008V272.857C822.705 238.142 794.563 210 759.848 210C725.133 210 696.991 238.142 696.991 272.857V310.008C696.991 315.531 692.514 320.008 686.991 320.008H612.71C607.187 320.008 602.71 324.486 602.71 330.008V382.86C602.71 417.575 574.568 445.717 539.853 445.717C505.138 445.717 476.996 417.575 476.996 382.86V330.008C476.996 324.486 472.519 320.008 466.996 320.008H392.714C387.192 320.008 382.714 315.531 382.714 310.008V272.857C382.714 238.142 354.572 210 319.857 210Z" fill="#100E15" style="fill:#100E15;fill:color(display-p3 0.0620 0.0545 0.0833);fill-opacity:1;"/>
</svg>
