<svg xmlns="http://www.w3.org/2000/svg" xmlns:xlink="http://www.w3.org/1999/xlink" id="working_in_office" x="0" y="0" version="1.1" viewBox="0 0 716.6 493.3" style="enable-background:new 0 0 716.6 493.3" xml:space="preserve"><style type="text/css">.st0{fill:#2847e0}.st1{fill:#172d51}.st2{fill-rule:evenodd;clip-rule:evenodd;fill:#4c4c4c}.st3{fill:#191919}.st4{fill:#faa895}.st5{fill:#6b3903}.st6{fill:none;stroke:#000;stroke-width:.88;stroke-miterlimit:10}.st7{fill:#331a02}.st8{fill:#021d4e}.st9{fill:#e08f82}.st10{fill:none;stroke:#bc5e63;stroke-linecap:round;stroke-miterlimit:10}.st11{fill:#ff66f4}.st12{fill:#db56d8}.st13{fill:none;stroke:#000;stroke-linecap:round;stroke-miterlimit:10}.st14{fill:#824c17}.st15,.st16{fill:none;stroke:#000;stroke-width:.9205;stroke-linecap:round;stroke-linejoin:round;stroke-miterlimit:10}.st16{stroke-width:.9477}.st17{fill:#fff}.st18{fill:#f99895}.st19{fill:none;stroke:#ffa401;stroke-width:4;stroke-linecap:round;stroke-linejoin:round;stroke-miterlimit:10}.st20{fill:#93c9f9}.st21{fill:#0098ff}.st22{fill:#a4bcff}.st23{fill:#5174f2}.st24{fill:#bdc3d3}.st25{fill:#f96700}.st26{fill:#ffa200}.st27{fill:#0187f0}.st28{fill:#25b350}.st29{fill:#dfe6f7}.st30{fill:#656d8b}.st31{fill:#bdc4cf}.st32{fill:#f8bac1}.st33{fill:#d2f0db}.st34{fill:#a1dfb6}.st35{fill:#26b54a}.st36{fill:none;stroke:#2bac52;stroke-width:2;stroke-linecap:round;stroke-miterlimit:10}.st37{fill:#92ccff}.st38{fill:#111f72}.st39{fill:#e1e6f9}.st40{fill:#22b6fd}.st41{fill:#04203f}.st42{fill:#fabbc3}.st43{fill:#ff8388}.st44,.st45{fill:none;stroke:#ff8388;stroke-miterlimit:10}.st45{stroke-linecap:round}.st46{fill:#f7bcc2}.st47{fill:#4e5986}.st48{fill:#414c6d}.st49{fill:#bdc3d1}.st50{fill:#a5b3e1}.st51{fill:#505a73}.st52{fill:#616d86}.st53{fill:#c35e2f}.st54{fill:#c66231}.st55{fill:#000201}.st56{fill:#1f2c7a}.st57{fill:#ffa002}.st58{fill:none;stroke:#000;stroke-miterlimit:10}.st59{fill:#963e18}.st60{fill:#331531}</style><g><path d="M691.1,161.5h-139c-6.8,0-12.4-5.5-12.4-12.4v-81c0-6.8,5.5-12.4,12.4-12.4h139c6.8,0,12.4,5.5,12.4,12.4v81 C703.4,156,697.9,161.5,691.1,161.5z" class="st0"/><path d="M274.8,156.3H124.7c-7.5,0-13.6-6.1-13.6-13.6V52.4c0-7.5,6.1-13.6,13.6-13.6h150.1c7.5,0,13.6,6.1,13.6,13.6 v90.3C288.4,150.2,282.3,156.3,274.8,156.3z" class="st1"/><path d="M183,299.8H33c-7.5,0-13.6-6.1-13.6-13.6v-90.9c0-7.5,6.1-13.6,13.6-13.6h150c7.5,0,13.6,6.1,13.6,13.6v90.9 C196.6,293.8,190.5,299.8,183,299.8z" class="st0"/><path d="M418.4,322.7c-0.5-2.1-0.6-4.9-0.6-8.8c-5.9,0.1-5.5,8.8,0.2,8.8H418.4z M417.7,310.8H438 c0,9.6,0.1,13.9-3.4,15.9h-13.5c-1-0.6-1.8-1.4-2.2-2.6h-0.9c-7.4,0-7.8-11.3-0.2-11.7L417.7,310.8z" class="st2"/><path d="M108.5,365.3v24.4c13.4,6.6,49-1.3,49-1.3l27.8-4.9l1.8,73.3l0.1,3.9l0.2,9.6l0.2,10.1H228 c-0.1-4.6-5.6-8.1-10.1-10c-1.7-0.7-3.3-1.2-4.5-1.4c-4.1-0.8-5-8.1-5-8.1l0-0.2l0.4-3.9l7.9-68.4l16.3,14.1l0,0l1.7-3.4l5.6,4.8 l0.1,0.1l6.7,5.8l8.2,7.1l26.1-30.7c-3.2-3.6-9.1-2.5-14.5-0.3c-6.2,2.5-11.8,6.5-11.8,6.5l-4-4.5l-0.3-0.3l-5.7-6.3l-48.6-54.3 L108.5,365.3z" class="st3"/><polygon points="245.3 381.3 234.8 399.1 240.5 404 250.9 387.6" class="st4"/><polygon points="187 456.8 187.1 460.7 208.5 460.7 208.9 456.8" class="st4"/><path d="M187.3,470.3l0.2,10.1H228c-0.1-4.6-5.6-8.1-10.1-10c-4.3,1.1-10.6,3.3-10.6,6.7H195 C195,477.1,192.3,471.1,187.3,470.3z" class="st5"/><path d="M247.8,410.3l7.8,6.4l26.3-30.2c-11.3-5.8-18.5,10.5-16,13.3l-8,9.2C257.8,409,251.6,407.1,247.8,410.3z" class="st5"/><path d="M152.4,342c0.8-0.9,2.6-18.1,1.9-19.2" class="st6"/><circle cx="151.9" cy="473.8" r="6.5" class="st5"/><circle cx="136" cy="473.8" r="6.5" class="st5"/><circle cx="120.1" cy="473.8" r="6.5" class="st5"/><circle cx="104.3" cy="473.8" r="6.5" class="st5"/><polyline points="168.6 406.6 162.3 410.7 134.5 410.7 134.5 461.2 155.7 461.2 155.7 467.4 100.7 467.4 100.7 461.2 122.2 461.2 122.2 410.1 95.1 410.1 89.6 406.6 168.6 406.6" class="st7"/><path d="M89.6,406.6h79v-7.8c0-5.4-4.3-9.7-9.7-9.7H99.3c-5.4,0-9.7,4.3-9.7,9.7V406.6z" class="st5"/><path d="M184.9,304.3c6.3,0,25.6,1.8,9.7-21.4c0.2-3.2,1.6-12.7-5.7-16.9c-7.3-4.2-4.6-6.7-4-8.7s2.6-31.7-36.5-29.9 c-4,0.8-19.2,3.6-17.8,25.8c1.4,22.2,1.4,29.5,1.4,29.5L184.9,304.3z" class="st8"/><path d="M235,295.4c0,0,13.6-2.2,15.2-8.3c0,0,2.4-2.9,0-4.7c0,0-0.9-2.5-2.7-2.5s-20,3.1-22.5,2.5s-3.1,15.1-3.1,15.1 L235,295.4z" class="st9"/><line x1="237.5" x2="249.9" y1="285.7" y2="282.5" class="st10"/><path d="M249.8,287.4c0,0-0.1-3-1.2-2.4c-1.3,0.7-2.6,2-3.2,2.3c-1.4,0.6-3.8,2.1-4.5,2.3" class="st10"/><path d="M242.8,287.3L242.8,287.3c-0.6-0.4-1.4-0.4-1.9,0.1c-1.3,1.3-3.8,3.5-5,3.5c-1.6,0.1-4.8-0.2-6.2-1.3 s-3.3-1.7-3.3-1.7s0.8-3.4,0.6-5s0.6-3.4,1.3-4.1c0.7-0.7,2.6-4.6,0.6-6.5c0,0-1.5-0.8-1.8,0c-0.3,0.8-2.7,5.1-3.8,6.6 c-1,1.5-9.8,11.4-11,14.4c-1.1,3,2.9,8.7,2.9,8.7l6.6-2.4c0,0,10.3-3.3,11.2-3.3c0.9,0,5.6-0.9,10-7 C243.6,288.7,243.5,287.8,242.8,287.3z" class="st4"/><path d="M221.9,299.7C221.9,299.7,221.9,299.7,221.9,299.7C221.9,299.7,221.9,299.7,221.9,299.7 c-0.6,1.1-9.8,17.4-15.2,27.2c-5.6,10.2-13.3,8-16.5,6.4c-3-1.5-17.7-15.4-19.6-17.2c-0.1-0.1-0.2-0.2-0.2-0.2 c-3.9,11.1-15.3,7.7-15.3,7.7c-1.2,6.8,2.5,20.3,2.5,20.3l-49,21.3l9-45.4H91.2c-7.9-3.6-3.1-14.4-3.1-14.4s18.3-19.4,27.5-25.3 c9.2-5.9,11.7-5.2,11.7-5.2s33.4,7.7,40.9,7.8c7.5,0.1,15.7,12.3,15.7,12.3l11,15.8l17.4-17.6C214.4,298.6,221.9,299.7,221.9,299.7 z" class="st11"/><path d="M221.9,299.8c-0.6,1-9.8,17.3-15.2,27.2c-5.6,10.2-13.3,8-16.5,6.4c-3-1.5-17.7-15.4-19.6-17.2 c1.6-8.2-4.8-11.9-4.8-11.9c1.1-2,5.6-4.2,5.6-4.2s18.2,23.4,20.5,26c2.3,2.6,5.7,1.9,8.8,0.2C203.7,324.8,221,301,221.9,299.8z" class="st12"/><path d="M132.7,305.4c0,0-6.3,6.1-2.2,13.6l15,23.1c0,0,4.4,0.5,4.6-14.2l0.5,14.2c0,0,2.5-0.3,2.8-4.1 c0.3-3.8,0.9-15.1,0.9-15.1S148.4,305.9,132.7,305.4z" class="st4"/><line x1="132.7" x2="106.8" y1="305.4" y2="304.3" class="st13"/><path d="M128.9,298.6c0,0-9.7,2.8-11.9,6.1" class="st13"/><path d="M98.5,367.9h35.2c6.5,0,11.8-5.3,11.8-11.8v-25.3c0-6.5-5.3-11.8-11.8-11.8H98.5c-6.5,0-11.8,5.3-11.8,11.8 V356C86.7,362.6,92,367.9,98.5,367.9z" class="st5"/><path d="M105,362.8h7c5.1,0,9.1-4.1,9.1-9.1l0,0c0-5.1-4.1-9.1-9.1-9.1h-7c-5.1,0-9.1,4.1-9.1,9.1l0,0 C95.8,358.7,99.9,362.8,105,362.8z" class="st14"/><path d="M105.2,403.7L105.2,403.7c2.5,0,4.5-2,4.5-4.5v-43.6c0-2.5-2-4.5-4.5-4.5h0c-2.5,0-4.5,2-4.5,4.5v43.6 C100.7,401.7,102.7,403.7,105.2,403.7z" class="st7"/><path d="M168.1,283.3c4.4,14.7-18,9.6-23.6,6.3c-5.6-3.3-17.2-14.6-17.2-14.6c10-0.5,12,0.2,14.2,1.3 c2.2,1.1,4.6,1,5.6,0c1.1-1,1.7-12.2,1.7-12.2c-7.6,0.4-6.1-2.9-6.1-4.6c0-1.8,1.8-1.8,1.8-1.8h1.8c7.8,0,6.1-16.8,6.1-16.8 c14.5-1,17.3,5.6,17.8,13.5c1,17.4-9.8,14.6-9.8,14.6l-0.8,10.5C164.6,282.8,168.1,283.3,168.1,283.3z" class="st4"/><path d="M159.5,248.8c0,0-4-2.1-6.2,1.6" class="st15"/><ellipse cx="157.4" cy="254.3" rx="1.5" ry="2.1" transform="matrix(0.9058 -0.4237 0.4237 0.9058 -92.9134 90.6355)"/><ellipse cx="166.1" cy="250.2" rx="1.2" ry="1.7" transform="matrix(0.9058 -0.4237 0.4237 0.9058 -90.3719 93.9354)"/><path d="M166.7,246.2c0,0-2.8-1.5-3.6,1.4" class="st16"/><path d="M162.6,249.9c0,0,0.9,5,2.4,6c1.5,0.9-0.9,2.2-1.8,2.2" class="st10"/><path d="M165.2,262.6c-2.6,0.9-4-0.9-4-0.9l6.3-2.1C167.5,259.6,168.3,261.5,165.2,262.6z" class="st17"/><path d="M152.7,264.1c0.1,0.1,0.4,0.5,0.9,1.2c-0.2-0.2-0.3-0.3-0.4-0.5C152.9,264.3,152.8,264.1,152.7,264.1z" class="st18"/><path d="M168.1,283.3c-6.4,0.1-9.9-1.5-10.9-1.8c-1-0.3,0.7-7.7,0.6-9.5c0-1.1-2.6-4.8-4.1-6.7 c2.5,2.7,6.8,3.7,6.8,3.7l-0.8,10.5C164.6,282.8,168.1,283.3,168.1,283.3z" class="st9"/><polyline points="124.7 102.6 140.5 112.8 152.7 108.7 165.2 111.4 180.8 62 191.3 111.7 201.8 93.7 212 112.6 222.1 107.7 226.8 111.9 241.9 104.7 247.3 108.4 266.3 108.4" class="st19"/><rect width="23.6" height="44.4" x="566.7" y="104" class="st20"/><rect width="23.6" height="28.7" x="566.7" y="119.6" class="st21"/><rect width="23.6" height="33.7" x="596.7" y="114.6" class="st20"/><rect width="23.6" height="14.4" x="596.7" y="133.9" class="st21"/><rect width="23.6" height="53.6" x="626.7" y="94.7" class="st20"/><rect width="23.6" height="30.2" x="626.7" y="118.1" class="st21"/><rect width="23.6" height="54" x="656.7" y="94.3" class="st21"/><path d="M64.1,203.6H46.5c-1.8,0-3.3-1.5-3.3-3.3l0,0c0-1.8,1.5-3.3,3.3-3.3h17.6c1.8,0,3.3,1.5,3.3,3.3l0,0 C67.4,202.1,65.9,203.6,64.1,203.6z" class="st22"/><path d="M90.1,215.1H46.3c-1.8,0-3.3-1.5-3.3-3.3l0,0c0-1.8,1.5-3.3,3.3-3.3h43.7c1.8,0,3.3,1.5,3.3,3.3l0,0 C93.4,213.6,91.9,215.1,90.1,215.1z" class="st23"/><path d="M179.8,139.8h-53.6c-1.8,0-3.3-1.5-3.3-3.3v0c0-1.8,1.5-3.3,3.3-3.3h53.6c1.8,0,3.3,1.5,3.3,3.3v0 C183.1,138.3,181.6,139.8,179.8,139.8z" class="st24"/><path d="M74,254.9l-27.6,14.2c-2.2-4.2-3.4-9-3.4-14.2c0-5.7,1.6-11.1,4.3-15.7L74,254.9z" class="st17"/><path d="M74,254.9l-4.5,30.7c-10.1-1.5-18.7-7.9-23.2-16.7L74,254.9z" class="st25"/><path d="M105,254.9c0,17.1-13.9,31-31,31c-1.5,0-3-0.1-4.5-0.3l4.5-30.7l26.5-16.1C103.3,243.5,105,249,105,254.9z" class="st26"/><path d="M101,239.7l-27,15.2l0-31C85.6,223.9,95.7,230.3,101,239.7z" class="st27"/><path d="M74,254.9l-27.1-15.1c5.3-9.4,15.6-15.8,27.1-15.9L74,254.9z" class="st28"/><path d="M507.5,248.4h-199c-4.9,0-8.9-4-8.9-8.9V116.5c0-4.9,4-8.9,8.9-8.9h199c4.9,0,8.9,4,8.9,8.9v123.1 C516.4,244.5,512.4,248.4,507.5,248.4z" class="st29"/><path d="M338.9,126.5h-24.7c-2.4,0-4.3-1.9-4.3-4.3v0c0-2.4,1.9-4.3,4.3-4.3h24.7c2.4,0,4.3,1.9,4.3,4.3v0 C343.2,124.5,341.3,126.5,338.9,126.5z" class="st30"/><path d="M497.7,126.5h-53.1c-2.4,0-4.3-1.9-4.3-4.3v0c0-2.4,1.9-4.3,4.3-4.3h53.1c2.4,0,4.3,1.9,4.3,4.3v0 C502,124.5,500,126.5,497.7,126.5z" class="st31"/><path d="M605.3,86.1h-40.4c-1.8,0-3.2-1.4-3.2-3.2v0c0-1.8,1.4-3.2,3.2-3.2h40.4c1.8,0,3.2,1.4,3.2,3.2v0 C608.5,84.7,607,86.1,605.3,86.1z" class="st23"/><path d="M582.2,75.8h-17.6c-1.8,0-3.2-1.4-3.2-3.2v0c0-1.8,1.4-3.2,3.2-3.2h17.6c1.8,0,3.2,1.4,3.2,3.2v0 C585.4,74.4,584,75.8,582.2,75.8z" class="st22"/><path d="M597.8,463.8c0,0,0.9,5.7,0,6.2c-0.9,0.5,12.6,0,13.1-0.1c0.5-0.1,0.2-2.6,0.2-2.6l0.2-4.8L597.8,463.8z" class="st32"/><polygon points="550.9 462.6 550.1 469.1 563.9 469.3 563.4 462.8" class="st32"/><circle cx="475.8" cy="169.2" r="12" class="st33"/><circle cx="475.8" cy="169.2" r="8.3" class="st34"/><circle cx="475.8" cy="169.2" r="4.7" class="st35"/><path d="M316.9,192.3c0,0,4.2-27.2,25.9-25.4c21.7,1.7,32.9,31.9,47.1,29.7c14.2-2.2,21.9-27.4,30.9-25.2 c9,2.2,7.5,11.5,12.2,10.2c4.7-1.2,16.2-28.7,21.4-28.7c5.2,0,8.5,10.2,14,13.2c5.5,3,7.3,3.3,9.5,1.1" class="st36"/><path d="M613.4,477.1v3.2l-41.4,0.2c-0.2-1.2-0.2-2.3,0.1-3.2c0,0,0,0,0-0.1c1.1-3.8,5.6-5.9,9-6.6 c1.5-0.3,2.9-0.3,3.5,0c2.5,1,13.3-2.7,13.3-2.7c8.1,3.5,13-0.6,13-0.6C614.2,468.4,613.4,477.1,613.4,477.1z" class="st37"/><path d="M613.4,477.3v3l-41.4,0.2c-0.2-1.2-0.2-2.3,0.1-3.2H613.4z" class="st38"/><path d="M581.4,477.2l-9.2,0c1.1-3.8,5.6-5.9,9-6.6L581.4,477.2z" class="st39"/><path d="M566,474.9v3.2l-41.4,0.2c-0.2-1.2-0.2-2.3,0.1-3.2c0,0,0,0,0-0.1c1.1-3.8,5.6-5.9,9-6.6 c1.5-0.3,2.9-0.3,3.5,0c2.5,1,13.3-2.7,13.3-2.7c8.1,3.5,13-0.6,13-0.6C566.8,466.2,566,474.9,566,474.9z" class="st37"/><path d="M566,475.1v3l-41.4,0.2c-0.2-1.2-0.2-2.3,0.1-3.2H566z" class="st38"/><path d="M534,475.1l-9.3-0.1c1.1-3.8,5.6-5.9,9-6.6L534,475.1z" class="st39"/><path d="M607.7,282.2c0,0,3,11.6,1.9,28.9s-4.3,61.9-4.1,66.8c0.2,4.9,5.3,48.4,5.3,50.7c0,2.3,3,35.3,3,35.3 s-19.1,2.4-20.6,0c-1.5-2.4-9.8-85.6-9.8-85.6l-3.8-64.6l-8.3,84.1c0,0-2.1,65.1-4.9,65.7c-2.8,0.6-16.1,0.9-17.5-0.2 c-1.3-1.1,6.9-176,6.9-176S584.1,297.8,607.7,282.2z" class="st40"/><path d="M512,161.3c1.4-5.7,7.3-2.8,7.3-2.8s-4.9-5-2.4-6.8c2.4-1.8,7.5-0.7,7.5-0.7s0-4,1.9-4.6 c1.9-0.6,2.8,2.1,4.4,2.1c1.6,0,16.1-6.8,21.8,6.3c5.7,13.1-3.2,20.3-3.2,20.3l-27.8-7.8C521.7,167.2,510.3,168.3,512,161.3z" class="st41"/><path d="M570.9,195.1c-3.4,11.1-24.8,15.2-24.8,15.2s-13.3-2.1-9.4-6.1c1.3-1.3,1.8-2.7,2-4c0.3-2.8-1-5.1-1-5.1 c-0.8,0.1-1.6,0.1-2.4,0c-17.1-1.1-12.6-35.1-12.6-35.1c4.5-1,5.1-3.7,5.1-3.7c0.6,3.9,8.5,1.2,10.8,0c2.3-1.2,4.1,1.8,4.1,1.8 s-3,9-0.4,8.9c2.7-0.1,5.2,3.6,5.2,3.6c1.3-1.7,9.1-2.8,9.5,3.2c0.4,6-5,6.2-5,6.2C553.2,189.3,570.9,195.1,570.9,195.1z" class="st42"/><path d="M546.9,188.3c-0.2,8-4.8,10.9-8.2,11.9c0.3-2.8-1-5.1-1-5.1c-0.8,0.1-1.6,0.1-2.4,0c0.6-0.4,1.4-0.5,2.3-0.5 C542.6,195,546.9,188.3,546.9,188.3z" class="st43"/><path d="M532.9,166.3c0,0,2.2-1.7,4.6,1.5" class="st13"/><path d="M523.8,168.8c0,0,1.1-3.3,3.9-2.2" class="st13"/><path d="M529,168.5c0,0,0.9,5.1-0.3,8.7c-1.2,3.6-0.2,5.1,4.3,4.1" class="st44"/><ellipse cx="534.8" cy="174.3" rx="1.3" ry="2"/><ellipse cx="526" cy="174.8" rx="1.3" ry="2"/><path d="M547.5,177.3c0,0,1.8-5.2,7.2-4.1" class="st45"/><path d="M552.7,177.1c0,0-2.8,0-2.8-2.8" class="st45"/><path d="M528.9,184.1c0,0,5.1,0.7,7.5-0.8c2.4-1.5,0.4,3.8-3.6,4.5C528.8,188.6,528.9,184.1,528.9,184.1z" class="st17"/><path d="M516.7,239.5c0,0-10.9,40.6-10.9,41.9c0,1.2-6.3,20.3-6.9,26.1c-0.7,5.7-8.7,7.6-8.7,10.1 c0,2.4,11.6-1,13.4-3.5c1.7-2.4,4,4,5,4s-0.3-5.7-2.3-8.5c-1.9-2.8,6.9-14.8,10.9-23.1c4-8.3,16.2-42.9,16.2-42.9L516.7,239.5" class="st46"/><path d="M514.8,241.7c0,0,5.1-14.9,5.1-17s5.4-18.4,19-20.6c0,0,16.8,3.2,29.8-9.4l2.2,0.4c0,0,12.5,2.8,14.6,3.2 c2.1,0.4,15.5,3.3,16.9,21.9s4.9,40.3,5.4,45s4,18.5,0.9,20.6c-3.2,2.1-39,15.5-54.3,3.5c0,0-2.2-23-3.4-26.5 c-1.2-3.5-11.3-22.2-13-22.3s-2.8,4.7-2.8,4.7L514.8,241.7z" class="st47"/><path d="M578,236.7c0,0,2.6-18.4,4.2-20.2c1.6-1.8-8.3,12.8-9,22.2s1.5,14.4,0.3,18.5c-1.3,4.1-3.8,16.3-3.8,16.3 S581,255.7,578,236.7" class="st48"/><path d="M578,236.7c0,0-0.3,19.6-2.6,22.9c-2.3,3.3-20,36.6-21.7,38.2c-1.7,1.6-11.8,4-15.6,10.1 c-3.8,6.1,3.6,12.7,3.6,12.7s9-4.9,11.5-10.4c0,0,27.8-29.2,32.1-33.9c4.3-4.7,12.5-29.7,12.5-33.3S594.3,237.4,578,236.7z" class="st32"/><path d="M284.5,333.5v147.1h12.1V333.8C296.7,333.8,285,333.9,284.5,333.5z" class="st49"/><path d="M484.2,333.5v147.1h12.1V333.8C496.3,333.8,484.6,333.9,484.2,333.5z" class="st49"/><path d="M573,326.9v-4.4h-35.8v4.3C537.2,326.8,573,326.6,573,326.9z" class="st50"/><path d="M475.9,321v5.8h63.5v-5.3C539.4,321.5,476.3,321.3,475.9,321z" class="st51"/><polygon points="459.8 273.6 534 273.6 544.1 322.5 470 322.4" class="st52"/><path d="M313.7,278.7c0,0-0.2,6.8-0.2,7.6c0,0.9-2.7,5-2.7,5l6.1,0.1c0,0,2.3,1.3-0.2,3s-4.9,4.8-3.2,6.9 s13.6-6,13.6-6.4s2.7-7.3,1.7-9.6s-5.8-8.5-5.8-8.5L313.7,278.7z" class="st53"/><path d="M454.4,190.6c-0.6-0.4-0.6-1.2-0.1-1.6c1.6-1.4,4.4-4.4,4.6-6.7c0.3-3.3-0.7-4.6,2-6.1c2.3-1.2,12-7.2,15-9.1 c0.5-0.3,1.2-0.1,1.5,0.4l0,0c0.2,0.4,0.1,0.9-0.2,1.2l-5.5,5.6c-0.5,0.5-0.4,1.4,0.3,1.7c1.5,0.7,3.6,2,3.5,3.5 c-0.1,2.3,0.1,8.2-1.7,8.2s-1.7-2.3-2.2-2.1c-0.6,0.2-3,4.4-5.2,4.4c-1.7,0-4.2,2.7-5.4,4c-0.3,0.4-0.9,0.5-1.4,0.2L454.4,190.6z" class="st54"/><path d="M407,458.2c0,0,0.6,7.6,3.6,8.9c3.1,1.3,18.5,5.8,18.8,8.3c0.3,2.5,0.6,5.4,0.6,5.4h-42c0,0-5.5-2.2-2.9-11.5 c2.6-9.3,2.8-11.2,2.8-11.2L407,458.2z"/><path d="M333,458.7c0,0-2.2,8.6-2.8,9.3s-2,4.8-0.3,6.3c1.7,1.5,35.3,1.3,35.3,1.3s9.5,0,9.2-2.2s-7.4-6.1-11.5-6.4 c-4.1-0.3-10.8-4.2-11.1-7.4S333,458.7,333,458.7z" class="st55"/><path d="M331.1,459.4c0,0,20.9,4.1,23-0.5c2-4.5,7.4-91.8,7.4-91.8l3.2-56l15.8,58.3l4.4,90.4l24.2-1.1l-6.3-90.5 c0,0-8.8-86.4-10.4-93.9l-54.5-0.9c0,0-4.5,9.9-3.6,29.5c0.9,19.6,4.7,56.9,4.1,61.2C337.7,368.4,331.1,459.4,331.1,459.4z" class="st56"/><path d="M218.6,326.7v11.9l361.5,0.1l-0.1-11.9C580,326.8,218.6,326.2,218.6,326.7z" class="st57"/><path d="M352.7,300.9c0,0,8.5,7.2,11.6,7.5" class="st58"/><path d="M395.4,154.2c0,0-0.9,1.6-0.5,3.5c0.4,2,1.8,13-8.5,11.7l3.7,7.8l-6.1-0.5l-23.2-2.1c0,0,6-6.4,5.6-13.8 s11.2-32.1,21.8-31.7c0,0,4.8,5.6,5,10.2s2.9,9.4,3.3,10.2C396.7,150.3,399.2,152.9,395.4,154.2z" class="st54"/><path d="M390.1,177.2l-6.1-0.5l-3.8-1.4l-1.7-12.7c0,0-1.3-6.9,3.1,0.9c0,0,1.7,3.6,4.9,5.9L390.1,177.2z" class="st59"/><path d="M388.9,140.6c0,0,0.4-3.9,3.8-3.4" class="st13"/><ellipse cx="392.1" cy="144.8" rx=".7" ry="1.9" transform="matrix(0.9501 -0.312 0.312 0.9501 -25.589 129.5653)"/><path d="M462.1,194.4c0,0-26.5,39.6-29.3,42.4c-2.9,2.7-7.3,4.7-11.5,0.5c-4.2-4.2-16.5-18.5-16.5-18.5 s-2.6-2.2-3.1,5.3c-0.5,7.6-4.4,30.2-5.1,33c-0.7,2.7-0.7,18-0.7,18.6c0,0.6-3.1,0.3-6.3,1.6c-3.1,1.3-34.2,10-55.1-2 c0,0,6.3-17.6,5-23.1c-1.3-5.5-6.5-24.6-6.5-24.6l-11.2,9.8c0,0-0.5,4.2,0.4,9.6c0.9,5.5,2.5,30.2,2.5,30.2s-9.5,3.8-12.2,2.5 c0,0-5.9-25.4-7.6-29.3c-1.7-3.9-5.3-14.5-0.4-22.2c4.9-7.7,22.8-36.5,22.8-36.5s8.3-13.4,26.7-15.8c0,0,2.1,0,4.7-1.6 c1.8-1.1,3.8-2.9,5.6-6c0,0,18.6-1.3,23.5,2.3l3,6l0,0c0,0,8.6,5.2,11.1,5.3c2.5,0.1,9.8,0.7,16,11.5c6.3,10.8,10.7,16.4,10.7,16.4 l25.4-22.3L462.1,194.4z" class="st0"/><path d="M390.9,176.8l-32-2.3c1.8-1.1,3.8-2.9,5.6-6c0,0,18.6-1.3,23.5,2.3L390.9,176.8z" class="st17"/><path d="M387.2,126c-0.7-0.9-9.2-4.9-16.8-1.4c-7.7,3.5-10.8,4.6-13.4,10.2c-5.8,12.5,0.3,26.8,7.8,27.1 c7.5,0.3,13.2-0.2,14.9-11.5c0.2-2.6,2.1-6.7,4.8-4.3c2.7,2.3,1.7,1.6,1.7,1.6l1.5-1.6c0,0-2.2-2.7-1.5-4.6c0.7-2,0.6-6.3,0.2-7.4 s2.9-1,3.6-4.6" class="st60"/><g><path d="M386.5,157.4c-1.2,0-2.2-0.3-3.1-0.9c-1.4-1-2.4-2.6-2.7-4.7c-0.7-4.2,1.5-5.1,1.6-5.2 c0.3-0.1,0.5,0,0.6,0.3c0.1,0.3,0,0.5-0.3,0.6c-0.1,0-1.6,0.7-1,4.1c0.3,1.9,1.1,3.3,2.3,4c1.1,0.7,2.5,0.9,4.1,0.5 c0.3-0.1,0.5,0.1,0.6,0.4c0.1,0.3-0.1,0.5-0.4,0.6C387.7,157.3,387.1,157.4,386.5,157.4z" class="st59"/></g><g><path d="M388.4,153.9c-0.2,0-0.5-0.2-0.5-0.4c-0.6-3.8-4.6-4.1-4.8-4.1c-0.3,0-0.5-0.3-0.5-0.5s0.3-0.5,0.5-0.5 c0,0,5,0.4,5.7,5C388.9,153.6,388.7,153.9,388.4,153.9C388.4,153.9,388.4,153.9,388.4,153.9z" class="st59"/></g><g><path d="M385.5,154.3c-0.1,0-0.3-0.1-0.4-0.2c-0.2-0.2-0.1-0.5,0.1-0.7c0.9-0.8,0.6-2.7,0.4-3.3 c-0.1-0.3,0.1-0.5,0.3-0.6c0.3-0.1,0.5,0.1,0.6,0.3c0,0.1,0.9,3.1-0.7,4.4C385.8,154.3,385.6,154.3,385.5,154.3z" class="st59"/></g></g></svg>